# xmcd
#
# Track frame offsets:
#	150
#	11256
#	27320
#	39609
#	55465
#	67704
#	82520
#	98346
#	114555
#	129367
#	144708
#	155915
#	169642
#	180218
#	195020
#	210449
#	223925
#	240174
#
# Disc length: 3355 seconds
#
# Revision: 0
# Processed by: cddbd v1.5.2PL0 Copyright (c) Steve Scherf et al.
# Submitted via: EasyCDDAExtractor 16.0.6.1
#
DISCID=d60d1912
DTITLE=Συλλογικός δίσκος - Τα 45άρια 2.2
DYEAR=2000
DGENRE=Λαϊκή
TTITLE0=Καλατζής Γιάννης - Ο επιπόλαιος
TTITLE1=Πουλόπουλος Γιάννης-χορωδία - Στρώσε το στρώμα σου
TTITLE2=Ευσταθίου Δημήτρης-Παπαδάκης Μάνος - Ένας πλάϊ στον άλλο
TTITLE3=Αγγελόπουλος Μανώλης-Ζάννου Νίτσα - Συρματοπλέγματα βαρειά
TTITLE4=Λύδια Γιώτα-Γκίκα Βούλα - Κι εγώ σ' αγαπώ
TTITLE5=Ρεπάνης Αντώνης - Σ' είχα τόσο συνηθίσει
TTITLE6=Γκρέϋ Καίτη - Σήμερα θα κλάψω
TTITLE7=Καζαντζίδης Στέλιος-Μαρινέλλα - Ξημέρωσε στις λαγκαδιές
TTITLE8=Λίντα Μαίρη-Χιώτης Μανώλης - Είμαι τσιγγάνα φλογερή
TTITLE9=Καζαντζίδης Στέλιος-Γκίκα Βούλα - Εγώ καλός γεννήθηκα
TTITLE10=Διονυσίου Στράτος - Δεν με τρομάζει η δουλειά
TTITLE11=Καζαντζίδης Στέλιος - Αν δεν με θέλεις γι' άντρα σου
TTITLE12=Νικολαΐδης Απόστολος-Χιώτης Μανώλης - Εσένα έχω και αυτό μού φτάνει
TTITLE13=Περπινιάδης Βαγγέλης-Λαμπράκη Χαρούλα - Δεν σού μοιάζει καμμιά
TTITLE14=Μενιδιάτης Μιχάλης - Ο γκρεμός
TTITLE15=Μπιθικώτσης Γρηγόρης-Κούρτη Ρία-Χρηστάκης - Κυρ Αλέκο
TTITLE16=Γαβαλάς Πάνος-Γκίκα Βούλα - Ψεύτικε κόσμε
TTITLE17=Μπιθικώτσης Γρηγόρης-Γκίκα Βούλα - Ο Μιχάλης ο κουρέας
EXTD=
EXTT0=
EXTT1=
EXTT2=
EXTT3=
EXTT4=
EXTT5=
EXTT6=
EXTT7=
EXTT8=
EXTT9=
EXTT10=
EXTT11=
EXTT12=
EXTT13=
EXTT14=
EXTT15=
EXTT16=
EXTT17=
PLAYORDER=
